<mxfile host="65bd71144e">
    <diagram id="OjUisruULqEreYU6n0Wc" name="PÃ¡gina-1">
        <mxGraphModel dx="1808" dy="437" grid="1" gridSize="10" guides="1" tooltips="1" connect="1" arrows="1" fold="1" page="1" pageScale="1" pageWidth="827" pageHeight="1169" math="0" shadow="0">
            <root>
                <mxCell id="0"/>
                <mxCell id="1" parent="0"/>
                <mxCell id="2" value="State&amp;lt;ProductFormPageState&amp;gt; createState() =&amp;gt; _ProductFormPageState();" style="shape=partialRectangle;html=1;whiteSpace=wrap;connectable=0;fillColor=none;top=0;left=0;bottom=0;right=0;align=left;spacingLeft=6;overflow=hidden;pointerEvents=1;movable=0;resizable=0;rotatable=0;deletable=0;editable=0;" parent="1" vertex="1">
                    <mxGeometry x="-190" y="180" width="210" height="60" as="geometry">
                        <mxRectangle width="140" height="20" as="alternateBounds"/>
                    </mxGeometry>
                </mxCell>
                <mxCell id="7" value="" style="endArrow=none;html=1;movable=0;resizable=0;rotatable=0;deletable=0;editable=0;connectable=0;" parent="1" edge="1">
                    <mxGeometry width="50" height="50" relative="1" as="geometry">
                        <mxPoint x="-190" y="160" as="sourcePoint"/>
                        <mxPoint x="10" y="160" as="targetPoint"/>
                    </mxGeometry>
                </mxCell>
                <mxCell id="8" value="&lt;b&gt;Metodo&lt;/b&gt;" style="shape=partialRectangle;html=1;whiteSpace=wrap;connectable=0;fillColor=none;top=0;left=0;bottom=0;right=0;align=left;spacingLeft=6;overflow=hidden;pointerEvents=1;movable=0;resizable=0;rotatable=0;deletable=0;editable=0;" parent="1" vertex="1">
                    <mxGeometry x="-30" y="160" width="60" height="20" as="geometry">
                        <mxRectangle width="140" height="20" as="alternateBounds"/>
                    </mxGeometry>
                </mxCell>
                <mxCell id="9" value="" style="endArrow=none;html=1;movable=0;resizable=0;rotatable=0;deletable=0;editable=0;connectable=0;" parent="1" edge="1">
                    <mxGeometry width="50" height="50" relative="1" as="geometry">
                        <mxPoint x="-190" y="180" as="sourcePoint"/>
                        <mxPoint x="180" y="180" as="targetPoint"/>
                    </mxGeometry>
                </mxCell>
                <mxCell id="10" value="class = ProductFormPage" style="shape=table;startSize=30;container=1;collapsible=0;childLayout=tableLayout;fixedRows=1;rowLines=0;fontStyle=1;align=center;pointerEvents=1;movable=0;resizable=0;rotatable=0;deletable=0;editable=0;connectable=0;" parent="1" vertex="1">
                    <mxGeometry x="-190" y="50" width="370" height="1880" as="geometry"/>
                </mxCell>
                <mxCell id="11" value="" style="shape=partialRectangle;html=1;whiteSpace=wrap;collapsible=0;dropTarget=0;pointerEvents=1;fillColor=none;top=0;left=0;bottom=1;right=0;points=[[0,0.5],[1,0.5]];portConstraint=eastwest;movable=0;resizable=0;rotatable=0;deletable=0;editable=0;connectable=0;" parent="10" vertex="1">
                    <mxGeometry y="30" width="370" height="30" as="geometry"/>
                </mxCell>
                <mxCell id="12" value="" style="shape=partialRectangle;html=1;whiteSpace=wrap;connectable=0;fillColor=none;top=0;left=0;bottom=0;right=0;overflow=hidden;pointerEvents=1;movable=0;resizable=0;rotatable=0;deletable=0;editable=0;" parent="11" vertex="1">
                    <mxGeometry width="82" height="30" as="geometry">
                        <mxRectangle width="82" height="30" as="alternateBounds"/>
                    </mxGeometry>
                </mxCell>
                <mxCell id="13" value="&lt;b&gt;&amp;nbsp; &amp;nbsp; &amp;nbsp; &amp;nbsp; &amp;nbsp; &amp;nbsp; &amp;nbsp; &amp;nbsp; &amp;nbsp; &amp;nbsp; &amp;nbsp; Construtor&lt;/b&gt;" style="shape=partialRectangle;html=1;whiteSpace=wrap;connectable=0;fillColor=none;top=0;left=0;bottom=0;right=0;align=left;spacingLeft=6;overflow=hidden;pointerEvents=1;movable=0;resizable=0;rotatable=0;deletable=0;editable=0;" parent="11" vertex="1">
                    <mxGeometry x="82" width="288" height="30" as="geometry">
                        <mxRectangle width="288" height="30" as="alternateBounds"/>
                    </mxGeometry>
                </mxCell>
                <mxCell id="14" value="" style="shape=partialRectangle;html=1;whiteSpace=wrap;collapsible=0;dropTarget=0;pointerEvents=1;fillColor=none;top=0;left=0;bottom=0;right=0;points=[[0,0.5],[1,0.5]];portConstraint=eastwest;movable=0;resizable=0;rotatable=0;deletable=0;editable=0;connectable=0;" parent="10" vertex="1">
                    <mxGeometry y="60" width="370" height="30" as="geometry"/>
                </mxCell>
                <mxCell id="15" value="" style="shape=partialRectangle;html=1;whiteSpace=wrap;connectable=0;fillColor=none;top=0;left=0;bottom=0;right=0;overflow=hidden;pointerEvents=1;movable=0;resizable=0;rotatable=0;deletable=0;editable=0;" parent="14" vertex="1">
                    <mxGeometry width="82" height="30" as="geometry">
                        <mxRectangle width="82" height="30" as="alternateBounds"/>
                    </mxGeometry>
                </mxCell>
                <mxCell id="16" value="Key&lt;span style=&quot;white-space: pre&quot;&gt;&#9;&lt;/span&gt;&lt;span style=&quot;white-space: pre&quot;&gt;&#9;&lt;/span&gt;key" style="shape=partialRectangle;html=1;whiteSpace=wrap;connectable=0;fillColor=none;top=0;left=0;bottom=0;right=0;align=left;spacingLeft=6;overflow=hidden;pointerEvents=1;movable=0;resizable=0;rotatable=0;deletable=0;editable=0;" parent="14" vertex="1">
                    <mxGeometry x="82" width="288" height="30" as="geometry">
                        <mxRectangle width="288" height="30" as="alternateBounds"/>
                    </mxGeometry>
                </mxCell>
                <mxCell id="17" value="" style="shape=partialRectangle;html=1;whiteSpace=wrap;collapsible=0;dropTarget=0;pointerEvents=1;fillColor=none;top=0;left=0;bottom=0;right=0;points=[[0,0.5],[1,0.5]];portConstraint=eastwest;movable=0;resizable=0;rotatable=0;deletable=0;editable=0;connectable=0;" parent="10" vertex="1">
                    <mxGeometry y="90" width="370" height="20" as="geometry"/>
                </mxCell>
                <mxCell id="18" value="" style="shape=partialRectangle;html=1;whiteSpace=wrap;connectable=0;fillColor=none;top=0;left=0;bottom=0;right=0;overflow=hidden;pointerEvents=1;movable=0;resizable=0;rotatable=0;deletable=0;editable=0;" parent="17" vertex="1">
                    <mxGeometry width="82" height="20" as="geometry">
                        <mxRectangle width="82" height="20" as="alternateBounds"/>
                    </mxGeometry>
                </mxCell>
                <mxCell id="19" value="" style="shape=partialRectangle;html=1;whiteSpace=wrap;connectable=0;fillColor=none;top=0;left=0;bottom=0;right=0;align=left;spacingLeft=6;overflow=hidden;pointerEvents=1;movable=0;resizable=0;rotatable=0;deletable=0;editable=0;" parent="17" vertex="1">
                    <mxGeometry x="82" width="288" height="20" as="geometry">
                        <mxRectangle width="288" height="20" as="alternateBounds"/>
                    </mxGeometry>
                </mxCell>
                <mxCell id="20" value="" style="endArrow=none;html=1;movable=0;resizable=0;rotatable=0;deletable=0;editable=0;connectable=0;" edge="1" parent="1">
                    <mxGeometry width="50" height="50" relative="1" as="geometry">
                        <mxPoint x="-190" y="260" as="sourcePoint"/>
                        <mxPoint x="180" y="260" as="targetPoint"/>
                    </mxGeometry>
                </mxCell>
                <mxCell id="21" value="" style="endArrow=none;html=1;movable=0;resizable=0;rotatable=0;deletable=0;editable=0;connectable=0;" edge="1" parent="1">
                    <mxGeometry width="50" height="50" relative="1" as="geometry">
                        <mxPoint x="-190" y="280" as="sourcePoint"/>
                        <mxPoint x="180" y="280" as="targetPoint"/>
                        <Array as="points">
                            <mxPoint x="-90" y="280"/>
                        </Array>
                    </mxGeometry>
                </mxCell>
                <mxCell id="22" value="&lt;b&gt;class = _ProductFormPageState&lt;/b&gt;" style="shape=partialRectangle;html=1;whiteSpace=wrap;connectable=0;fillColor=none;top=0;left=0;bottom=0;right=0;align=left;spacingLeft=6;overflow=hidden;pointerEvents=1;movable=0;resizable=0;rotatable=0;deletable=0;editable=0;" vertex="1" parent="1">
                    <mxGeometry x="-100" y="250" width="200" height="40" as="geometry">
                        <mxRectangle width="140" height="20" as="alternateBounds"/>
                    </mxGeometry>
                </mxCell>
                <mxCell id="23" value="final _priceFocus = FocusNode();" style="shape=partialRectangle;html=1;whiteSpace=wrap;connectable=0;fillColor=none;top=0;left=0;bottom=0;right=0;align=left;spacingLeft=6;overflow=hidden;pointerEvents=1;movable=0;resizable=0;rotatable=0;deletable=0;editable=0;" vertex="1" parent="1">
                    <mxGeometry x="-190" y="280" width="190" height="30" as="geometry">
                        <mxRectangle width="156" height="30" as="alternateBounds"/>
                    </mxGeometry>
                </mxCell>
                <mxCell id="24" value="final _tamanhoFocus = FocusNode();" style="shape=partialRectangle;html=1;whiteSpace=wrap;connectable=0;fillColor=none;top=0;left=0;bottom=0;right=0;align=left;spacingLeft=6;overflow=hidden;pointerEvents=1;movable=0;resizable=0;rotatable=0;deletable=0;editable=0;" vertex="1" parent="1">
                    <mxGeometry x="-190" y="310" width="190" height="40" as="geometry">
                        <mxRectangle width="156" height="30" as="alternateBounds"/>
                    </mxGeometry>
                </mxCell>
                <mxCell id="25" value="final _imageUrlFocus = FocusNode();" style="shape=partialRectangle;html=1;whiteSpace=wrap;connectable=0;fillColor=none;top=0;left=0;bottom=0;right=0;align=left;spacingLeft=6;overflow=hidden;pointerEvents=1;movable=0;resizable=0;rotatable=0;deletable=0;editable=0;" vertex="1" parent="1">
                    <mxGeometry x="-190" y="350" width="190" height="40" as="geometry">
                        <mxRectangle width="156" height="30" as="alternateBounds"/>
                    </mxGeometry>
                </mxCell>
                <mxCell id="26" value="final _imageUrlController = TextEditingController();" style="shape=partialRectangle;html=1;whiteSpace=wrap;connectable=0;fillColor=none;top=0;left=0;bottom=0;right=0;align=left;spacingLeft=6;overflow=hidden;pointerEvents=1;movable=0;resizable=0;rotatable=0;deletable=0;editable=0;" vertex="1" parent="1">
                    <mxGeometry x="-190" y="390" width="190" height="40" as="geometry">
                        <mxRectangle width="156" height="30" as="alternateBounds"/>
                    </mxGeometry>
                </mxCell>
                <mxCell id="27" value="final _formKey = GlobalKey&amp;lt;FormState&amp;gt;();" style="shape=partialRectangle;html=1;whiteSpace=wrap;connectable=0;fillColor=none;top=0;left=0;bottom=0;right=0;align=left;spacingLeft=6;overflow=hidden;pointerEvents=1;movable=0;resizable=0;rotatable=0;deletable=0;editable=0;" vertex="1" parent="1">
                    <mxGeometry x="-190" y="430" width="190" height="40" as="geometry">
                        <mxRectangle width="156" height="30" as="alternateBounds"/>
                    </mxGeometry>
                </mxCell>
                <mxCell id="28" value="final _formData = &amp;lt;String, Object&amp;gt;{};" style="shape=partialRectangle;html=1;whiteSpace=wrap;connectable=0;fillColor=none;top=0;left=0;bottom=0;right=0;align=left;spacingLeft=6;overflow=hidden;pointerEvents=1;movable=0;resizable=0;rotatable=0;deletable=0;editable=0;" vertex="1" parent="1">
                    <mxGeometry x="-190" y="470" width="190" height="40" as="geometry">
                        <mxRectangle width="156" height="30" as="alternateBounds"/>
                    </mxGeometry>
                </mxCell>
                <mxCell id="29" value="bool _isLoading = false;" style="shape=partialRectangle;html=1;whiteSpace=wrap;connectable=0;fillColor=none;top=0;left=0;bottom=0;right=0;align=left;spacingLeft=6;overflow=hidden;pointerEvents=1;movable=0;resizable=0;rotatable=0;deletable=0;editable=0;" vertex="1" parent="1">
                    <mxGeometry x="-190" y="510" width="190" height="40" as="geometry">
                        <mxRectangle width="156" height="30" as="alternateBounds"/>
                    </mxGeometry>
                </mxCell>
                <mxCell id="30" value="" style="endArrow=none;html=1;movable=0;resizable=0;rotatable=0;deletable=0;editable=0;connectable=0;" edge="1" parent="1">
                    <mxGeometry width="50" height="50" relative="1" as="geometry">
                        <mxPoint x="-190" y="560" as="sourcePoint"/>
                        <mxPoint x="180" y="560" as="targetPoint"/>
                    </mxGeometry>
                </mxCell>
                <mxCell id="31" value="" style="endArrow=none;html=1;movable=0;resizable=0;rotatable=0;deletable=0;editable=0;connectable=0;" edge="1" parent="1">
                    <mxGeometry width="50" height="50" relative="1" as="geometry">
                        <mxPoint x="-190" y="584" as="sourcePoint"/>
                        <mxPoint x="180" y="584" as="targetPoint"/>
                    </mxGeometry>
                </mxCell>
                <mxCell id="32" value="&lt;b&gt;Metodo&lt;/b&gt;" style="shape=partialRectangle;html=1;whiteSpace=wrap;connectable=0;fillColor=none;top=0;left=0;bottom=0;right=0;align=left;spacingLeft=6;overflow=hidden;pointerEvents=1;movable=0;resizable=0;rotatable=0;deletable=0;editable=0;" vertex="1" parent="1">
                    <mxGeometry x="-30" y="565" width="60" height="20" as="geometry">
                        <mxRectangle width="140" height="20" as="alternateBounds"/>
                    </mxGeometry>
                </mxCell>
                <mxCell id="33" value="void initState() {&lt;br&gt;super.initState();&lt;br&gt;_imageUrlFocus.addListener(updateImage);&lt;br&gt;}" style="shape=partialRectangle;html=1;whiteSpace=wrap;connectable=0;fillColor=none;top=0;left=0;bottom=0;right=0;align=left;spacingLeft=6;overflow=hidden;pointerEvents=1;movable=0;resizable=0;rotatable=0;deletable=0;editable=0;" vertex="1" parent="1">
                    <mxGeometry x="-187.5" y="585" width="245" height="70" as="geometry">
                        <mxRectangle width="140" height="20" as="alternateBounds"/>
                    </mxGeometry>
                </mxCell>
                <mxCell id="34" value="void didChangeDependencies() {&lt;br&gt;super.didChandeDependencies();&lt;br&gt;&lt;br&gt;if (_formDate.isEmpty) {&lt;br&gt;&lt;span style=&quot;white-space: pre&quot;&gt;&#9;&lt;/span&gt;final arg = ModalRoute.of(context)?.settings.arguments;&lt;br&gt;&lt;br&gt;if (arg != null) {&lt;br&gt;final product = arg as Product;&lt;br&gt;_formData['id'] = product.id;&lt;br&gt;_formData['name'] = product.name;&lt;br&gt;_formData['tamanho'] = product.tamanho;&lt;br&gt;_formData['quantidade'] = product.quantidade;&lt;br&gt;_formData['price'] = product.price;&lt;br&gt;_formData['imageUrl'] = product.imageUrl;&lt;br&gt;_imageUrlController.text = product.imageUrl;&lt;br&gt;}&lt;br&gt;}&lt;br&gt;}" style="shape=partialRectangle;html=1;whiteSpace=wrap;connectable=0;fillColor=none;top=0;left=0;bottom=0;right=0;align=left;spacingLeft=6;overflow=hidden;pointerEvents=1;movable=0;resizable=0;rotatable=0;deletable=0;editable=0;" vertex="1" parent="1">
                    <mxGeometry x="-185" y="640" width="255" height="310" as="geometry">
                        <mxRectangle width="140" height="20" as="alternateBounds"/>
                    </mxGeometry>
                </mxCell>
                <mxCell id="35" value="Incluindo dados na classe Product" style="shape=partialRectangle;html=1;whiteSpace=wrap;connectable=0;fillColor=#008a00;top=0;left=0;bottom=0;right=0;align=left;spacingLeft=6;overflow=hidden;pointerEvents=1;fontColor=#ffffff;strokeColor=#005700;" vertex="1" parent="1">
                    <mxGeometry x="190" y="780" width="90" height="50" as="geometry">
                        <mxRectangle width="140" height="20" as="alternateBounds"/>
                    </mxGeometry>
                </mxCell>
                <mxCell id="37" value="void dispose() {&lt;br&gt;super.dispose();&lt;br&gt;_priceFocus();&lt;br&gt;_tamanhoFocus.dispose();&lt;br&gt;_imageUrlFocus.removeListener(updateImage);&lt;br&gt;_imageUrlFocus.dispose();&lt;br&gt;}" style="shape=partialRectangle;html=1;whiteSpace=wrap;connectable=0;fillColor=none;top=0;left=0;bottom=0;right=0;align=left;spacingLeft=6;overflow=hidden;pointerEvents=1;movable=0;resizable=0;rotatable=0;deletable=0;editable=0;" vertex="1" parent="1">
                    <mxGeometry x="-185" y="940" width="275" height="120" as="geometry">
                        <mxRectangle width="140" height="20" as="alternateBounds"/>
                    </mxGeometry>
                </mxCell>
                <mxCell id="38" value="void updateImage() {&lt;br&gt;setState(() {});&lt;br&gt;" style="shape=partialRectangle;html=1;whiteSpace=wrap;connectable=0;fillColor=none;top=0;left=0;bottom=0;right=0;align=left;spacingLeft=6;overflow=hidden;pointerEvents=1;movable=0;resizable=0;rotatable=0;deletable=0;editable=0;" vertex="1" parent="1">
                    <mxGeometry x="-185" y="1060" width="245" height="60" as="geometry">
                        <mxRectangle width="140" height="20" as="alternateBounds"/>
                    </mxGeometry>
                </mxCell>
                <mxCell id="39" value="bool isValidImageUrl(String url) {&lt;br&gt;&lt;span style=&quot;white-space: pre&quot;&gt;&#9;&lt;/span&gt;bool isValidUrl = Uri.tryParse(url)?.hasAbsolutePath ?? false;&lt;br&gt;&lt;span style=&quot;white-space: pre&quot;&gt;&#9;&lt;/span&gt;bool endsWithFile = url.toLowerCase().endsWith('.png') ||&amp;nbsp;&lt;br&gt;&lt;span style=&quot;white-space: pre&quot;&gt;&#9;&lt;/span&gt;&lt;span style=&quot;white-space: pre&quot;&gt;&#9;&lt;/span&gt;url.toLowerCase().endsWith('.jpg') ||&lt;br&gt;&lt;span style=&quot;white-space: pre&quot;&gt;&#9;&lt;/span&gt;&lt;span style=&quot;white-space: pre&quot;&gt;&#9;&lt;/span&gt;url.toLowerCase().endsWith('.jpeg');&lt;br&gt;&lt;span style=&quot;white-space: pre&quot;&gt;&#9;&lt;/span&gt;return isValidUrl &amp;amp;&amp;amp; endsWithFile;&lt;br&gt;}" style="shape=partialRectangle;html=1;whiteSpace=wrap;connectable=0;fillColor=none;top=0;left=0;bottom=0;right=0;align=left;spacingLeft=6;overflow=hidden;pointerEvents=1;" vertex="1" parent="1">
                    <mxGeometry x="-185" y="1120" width="415" height="140" as="geometry">
                        <mxRectangle width="140" height="20" as="alternateBounds"/>
                    </mxGeometry>
                </mxCell>
                <mxCell id="40" value="ValidaÃ§Ã£o da imagem" style="shape=partialRectangle;html=1;whiteSpace=wrap;connectable=0;fillColor=#008a00;top=0;left=0;bottom=0;right=0;align=left;spacingLeft=6;overflow=hidden;pointerEvents=1;fontColor=#ffffff;strokeColor=#005700;" vertex="1" parent="1">
                    <mxGeometry x="190" y="1160" width="140" height="40" as="geometry">
                        <mxRectangle width="140" height="20" as="alternateBounds"/>
                    </mxGeometry>
                </mxCell>
                <mxCell id="41" value="Future&amp;lt;void&amp;gt; _submitForm() async {&lt;br&gt;final isValid = _formKey.currentState?.validate() ?? false;&lt;br&gt;&lt;br&gt;if (!isValid) {&lt;br&gt;return;&lt;br&gt;}&lt;br&gt;&lt;br&gt;_formKey.currentState?.save();&lt;br&gt;&lt;br&gt;setState(() =&amp;gt; _isLoading = true);&lt;br&gt;&lt;br&gt;try {&lt;br&gt;&lt;span style=&quot;white-space: pre&quot;&gt;&#9;&lt;/span&gt;await Provider.of&amp;lt;ProductList&amp;gt;(&lt;br&gt;&lt;span style=&quot;white-space: pre&quot;&gt;&#9;&lt;/span&gt;context,&lt;br&gt;&lt;span style=&quot;white-space: pre&quot;&gt;&#9;&lt;/span&gt;listen: false,&lt;br&gt;&lt;span style=&quot;white-space: pre&quot;&gt;&#9;&lt;/span&gt;).saveProduct(_formData);&lt;br&gt;&lt;br&gt;Navigator.of(context).pop();&lt;br&gt;} catch (error) {&lt;br&gt;&amp;nbsp; await showDialog&amp;lt;void&amp;gt;(&lt;br&gt;&lt;span style=&quot;white-space: pre&quot;&gt;&#9;&lt;/span&gt;context: (ctx) =&amp;gt; AlertDialog(&lt;br&gt;&lt;span style=&quot;white-space: pre&quot;&gt;&#9;&lt;/span&gt;title: const Text('Ocorreu um erro!'),&lt;br&gt;&lt;span style=&quot;white-space: pre&quot;&gt;&#9;&lt;/span&gt;content: const Text('Ocorreu um erro para salvar o produto.'),&lt;br&gt;&lt;span style=&quot;white-space: pre&quot;&gt;&#9;&lt;/span&gt;actions: [&lt;br&gt;&lt;span style=&quot;white-space: pre&quot;&gt;&#9;&lt;/span&gt;&amp;nbsp; TextButton(&lt;br&gt;&lt;span style=&quot;white-space: pre&quot;&gt;&lt;span style=&quot;white-space: pre&quot;&gt;&#9;&lt;/span&gt;&lt;span style=&quot;white-space: pre&quot;&gt;&#9;&lt;/span&gt;child: const Text('Ok'),&lt;br/&gt;&lt;span style=&quot;white-space: pre&quot;&gt;&#9;&lt;/span&gt;&lt;span style=&quot;white-space: pre&quot;&gt;&#9;&lt;/span&gt;onPressed: () =&amp;gt; Navigator.of(context).pop(),&lt;/span&gt;&lt;br&gt;&lt;span style=&quot;white-space: pre&quot;&gt;&#9;&lt;/span&gt;&lt;span style=&quot;white-space: pre&quot;&gt;&#9;&lt;/span&gt;),&lt;br&gt;&lt;span style=&quot;white-space: pre&quot;&gt;&#9;&lt;/span&gt;&amp;nbsp; &amp;nbsp; ],&lt;br&gt;&lt;span style=&quot;white-space: pre&quot;&gt;&#9;&lt;/span&gt;),&lt;br&gt;&amp;nbsp; &amp;nbsp; &amp;nbsp;);&lt;br&gt;} finally {&lt;br&gt;setState(() =&amp;gt; _isLoading = false);&lt;br&gt;}&lt;br&gt;&lt;br&gt;}" style="shape=partialRectangle;html=1;whiteSpace=wrap;connectable=0;fillColor=none;top=0;left=0;bottom=0;right=0;align=left;spacingLeft=6;overflow=hidden;pointerEvents=1;" vertex="1" parent="1">
                    <mxGeometry x="-180" y="1260" width="420" height="580" as="geometry">
                        <mxRectangle width="140" height="20" as="alternateBounds"/>
                    </mxGeometry>
                </mxCell>
                <mxCell id="42" value="SubmissÃ£o de formulÃ¡rio" style="shape=partialRectangle;html=1;whiteSpace=wrap;connectable=0;fillColor=#008a00;top=0;left=0;bottom=0;right=0;align=left;spacingLeft=6;overflow=hidden;pointerEvents=1;fontColor=#ffffff;strokeColor=#005700;" vertex="1" parent="1">
                    <mxGeometry x="190" y="1280" width="150" height="30" as="geometry">
                        <mxRectangle width="140" height="20" as="alternateBounds"/>
                    </mxGeometry>
                </mxCell>
                <mxCell id="43" value="build (BuildContext context);" style="shape=partialRectangle;html=1;whiteSpace=wrap;connectable=0;fillColor=none;top=0;left=0;bottom=0;right=0;align=left;spacingLeft=6;overflow=hidden;pointerEvents=1;movable=0;resizable=0;rotatable=0;deletable=0;editable=0;" vertex="1" parent="1">
                    <mxGeometry x="-180" y="1840" width="245" height="60" as="geometry">
                        <mxRectangle width="140" height="20" as="alternateBounds"/>
                    </mxGeometry>
                </mxCell>
                <mxCell id="44" value="" style="endArrow=none;html=1;movable=0;resizable=0;rotatable=0;deletable=0;editable=0;connectable=0;" edge="1" parent="1">
                    <mxGeometry width="50" height="50" relative="1" as="geometry">
                        <mxPoint x="-190" y="160" as="sourcePoint"/>
                        <mxPoint x="180" y="160" as="targetPoint"/>
                    </mxGeometry>
                </mxCell>
                <mxCell id="45" value="" style="endArrow=none;dashed=1;html=1;dashPattern=1 3;strokeWidth=2;movable=0;resizable=0;rotatable=0;deletable=0;editable=0;connectable=0;" edge="1" parent="1">
                    <mxGeometry width="50" height="50" relative="1" as="geometry">
                        <mxPoint x="-190" y="660" as="sourcePoint"/>
                        <mxPoint x="180" y="660" as="targetPoint"/>
                    </mxGeometry>
                </mxCell>
                <mxCell id="46" value="" style="endArrow=none;dashed=1;html=1;dashPattern=1 3;strokeWidth=2;movable=0;resizable=0;rotatable=0;deletable=0;editable=0;connectable=0;" edge="1" parent="1">
                    <mxGeometry width="50" height="50" relative="1" as="geometry">
                        <mxPoint x="-190" y="940" as="sourcePoint"/>
                        <mxPoint x="180" y="940" as="targetPoint"/>
                    </mxGeometry>
                </mxCell>
                <mxCell id="47" value="" style="endArrow=none;dashed=1;html=1;dashPattern=1 3;strokeWidth=2;movable=0;resizable=0;rotatable=0;deletable=0;editable=0;connectable=0;" edge="1" parent="1">
                    <mxGeometry width="50" height="50" relative="1" as="geometry">
                        <mxPoint x="-190" y="1060" as="sourcePoint"/>
                        <mxPoint x="180" y="1060" as="targetPoint"/>
                    </mxGeometry>
                </mxCell>
                <mxCell id="48" value="" style="endArrow=none;dashed=1;html=1;dashPattern=1 3;strokeWidth=2;movable=0;resizable=0;rotatable=0;deletable=0;editable=0;connectable=0;" edge="1" parent="1">
                    <mxGeometry width="50" height="50" relative="1" as="geometry">
                        <mxPoint x="-187.5" y="1119.31" as="sourcePoint"/>
                        <mxPoint x="182.5" y="1119.31" as="targetPoint"/>
                        <Array as="points">
                            <mxPoint x="2.5" y="1119.31"/>
                        </Array>
                    </mxGeometry>
                </mxCell>
                <mxCell id="49" value="" style="endArrow=none;dashed=1;html=1;dashPattern=1 3;strokeWidth=2;movable=0;resizable=0;rotatable=0;deletable=0;editable=0;connectable=0;" edge="1" parent="1">
                    <mxGeometry width="50" height="50" relative="1" as="geometry">
                        <mxPoint x="-187.5" y="1260" as="sourcePoint"/>
                        <mxPoint x="182.5" y="1260" as="targetPoint"/>
                        <Array as="points">
                            <mxPoint x="2.5" y="1260"/>
                        </Array>
                    </mxGeometry>
                </mxCell>
                <mxCell id="50" value="" style="endArrow=none;dashed=1;html=1;dashPattern=1 3;strokeWidth=2;movable=0;resizable=0;rotatable=0;deletable=0;editable=0;connectable=0;" edge="1" parent="1">
                    <mxGeometry width="50" height="50" relative="1" as="geometry">
                        <mxPoint x="-190" y="1830.0000000000002" as="sourcePoint"/>
                        <mxPoint x="180" y="1830.0000000000002" as="targetPoint"/>
                        <Array as="points">
                            <mxPoint y="1830"/>
                        </Array>
                    </mxGeometry>
                </mxCell>
                <mxCell id="51" value="AtualizaÃ§Ã£o de imagem" style="shape=partialRectangle;html=1;whiteSpace=wrap;connectable=0;fillColor=#008a00;top=0;left=0;bottom=0;right=0;align=left;spacingLeft=6;overflow=hidden;pointerEvents=1;fontColor=#ffffff;strokeColor=#005700;" vertex="1" parent="1">
                    <mxGeometry x="195" y="1070" width="140" height="40" as="geometry">
                        <mxRectangle width="140" height="20" as="alternateBounds"/>
                    </mxGeometry>
                </mxCell>
                <mxCell id="52" value="PÃ¡gina" style="shape=partialRectangle;html=1;whiteSpace=wrap;connectable=0;fillColor=#008a00;top=0;left=0;bottom=0;right=0;align=left;spacingLeft=6;overflow=hidden;pointerEvents=1;fontColor=#ffffff;strokeColor=#005700;" vertex="1" parent="1">
                    <mxGeometry x="210" y="1855" width="60" height="30" as="geometry">
                        <mxRectangle width="140" height="20" as="alternateBounds"/>
                    </mxGeometry>
                </mxCell>
            </root>
        </mxGraphModel>
    </diagram>
</mxfile>